<?xml version="1.0" standalone="no"?>
<!DOCTYPE svg PUBLIC "-//W3C//DTD SVG 1.1//EN" "http://www.w3.org/Graphics/SVG/1.1/DTD/svg11.dtd" >
<svg xmlns="http://www.w3.org/2000/svg">
<metadata></metadata>
<defs>
<font id="SuperGroteskCCdMedLFRegular" horiz-adv-x="1085" >
<font-face units-per-em="2048" ascent="1638" descent="-410" />
<missing-glyph horiz-adv-x="409" />
<glyph horiz-adv-x="0" />
<glyph horiz-adv-x="2048" />
<glyph unicode=" "  horiz-adv-x="409" />
<glyph unicode="&#x09;" horiz-adv-x="409" />
<glyph unicode="&#xa0;" horiz-adv-x="409" />
<glyph unicode="!" horiz-adv-x="471" d="M102 0v287h267v-287h-267zM102 410v1065h267v-1065h-267z" />
<glyph unicode="&#x22;" horiz-adv-x="696" d="M82 1475h225l-20 -553h-185zM389 1475h225l-20 -553h-184z" />
<glyph unicode="#" horiz-adv-x="1105" d="M82 328v215h164v338h-164v215h164v297h225v-297h164v297h225v-297h164v-215h-164v-338h164v-215h-164v-328h-225v328h-164v-328h-225v328h-164zM471 543h164v338h-164v-338z" />
<glyph unicode="$" horiz-adv-x="858" d="M10 270l215 117q27 -85 79.5 -130.5t113.5 -45.5t96 34t35 103q0 43 -27.5 88.5t-71.5 87.5t-97.5 87.5t-107 97t-97.5 106.5t-71.5 125t-27.5 145q0 140 75.5 230t211.5 112v170h164v-170q224 -35 297 -249l-224 -91q-27 70 -60 93.5t-95 23.5q-44 0 -70 -30t-26 -87 q0 -47 28 -93.5t72.5 -87.5t98 -84.5t107.5 -93t98.5 -104t72.5 -126t28 -150.5q0 -172 -87.5 -267.5t-239.5 -115.5v-170h-164v170q-228 42 -326 305z" />
<glyph unicode="%" horiz-adv-x="1392" d="M61 1085q0 96 24.5 167t65 109t85 55.5t92.5 17.5q38 0 73.5 -10t71 -36t62 -64.5t43 -100t16.5 -138.5t-16.5 -138.5t-43 -100t-62 -64t-71 -35.5t-73.5 -10q-48 0 -92.5 17.5t-85 55t-65 108.5t-24.5 167zM266 1085q0 -90 14.5 -126.5t47.5 -36.5q32 0 46.5 36.5 t14.5 126.5q0 91 -14 127.5t-47 36.5q-32 0 -47 -37t-15 -127zM307 0l553 1393h225l-553 -1393h-225zM799 307q0 77 16.5 138.5t43 100t62 64t71 35.5t73.5 10t73.5 -10t71 -35.5t62 -64t43 -100t16.5 -138.5t-16.5 -138.5t-43 -100t-62 -64t-71 -35.5t-73.5 -10t-73.5 10 t-71 35.5t-62 64t-43 100t-16.5 138.5zM1004 307q0 -91 14 -127.5t47 -36.5q32 0 46.5 37t14.5 127q0 91 -14 127.5t-47 36.5q-32 0 -46.5 -37t-14.5 -127z" />
<glyph unicode="&#x26;" horiz-adv-x="1105" d="M41 426q0 239 217 401q-42 69 -58.5 99.5t-33 83.5t-16.5 108q0 134 90.5 217.5t242.5 83.5q149 0 231.5 -83.5t82.5 -223.5q0 -52 -13 -97t-30 -76.5t-50 -65.5t-58 -54.5t-68 -52.5l196 -324q50 120 4 258h258q50 -298 -104 -497l133 -203h-272l-31 49 q-145 -90 -270 -90q-103 0 -188.5 37t-142.5 100.5t-88.5 148.5t-31.5 181zM291 428q0 -104 50.5 -163.5t129.5 -59.5q73 0 150 57l-226 365q-104 -94 -104 -199zM385 1122q0 -62 74 -174q54 40 83 77.5t29 86.5q0 111 -86 111q-41 0 -70.5 -26.5t-29.5 -74.5z" />
<glyph unicode="'" horiz-adv-x="389" d="M82 1475h225l-20 -553h-185z" />
<glyph unicode="(" horiz-adv-x="573" d="M41 696q0 295 58 505t188 437l245 -122q-215 -358 -215 -820q0 -461 215 -819l-245 -123q-130 227 -188 437t-58 505z" />
<glyph unicode=")" horiz-adv-x="573" d="M41 -123q215 358 215 819q0 462 -215 820l246 122q130 -227 187.5 -437t57.5 -505t-57.5 -505t-187.5 -437z" />
<glyph unicode="*" horiz-adv-x="737" d="M45 1092l160 86l-160 86l72 125l153 -95l-4 181h144l-4 -181l153 95l72 -125l-160 -86l160 -86l-72 -125l-153 94l4 -180h-144l4 180l-153 -94z" />
<glyph unicode="+" horiz-adv-x="1044" d="M123 512v225h287v287h225v-287h287v-225h-287v-287h-225v287h-287z" />
<glyph unicode="," horiz-adv-x="471" d="M20 -225q82 82 82 225v287h267v-287q0 -108 -59.5 -195.5t-166.5 -132.5z" />
<glyph unicode="-" horiz-adv-x="573" d="M82 512v225h410v-225h-410z" />
<glyph unicode="." horiz-adv-x="471" d="M102 0v287h267v-287h-267z" />
<glyph unicode="/" horiz-adv-x="696" d="M0 -205l492 1802h204l-491 -1802h-205z" />
<glyph unicode="0" horiz-adv-x="962" d="M51 696q0 738 430 738t430 -738q0 -737 -430 -737t-430 737zM328 696q0 -491 153 -491q154 0 154 491q0 492 -154 492q-153 0 -153 -492z" />
<glyph unicode="1" horiz-adv-x="645" d="M82 942v287l184 164h256v-1393h-276v1085z" />
<glyph unicode="2" horiz-adv-x="921" d="M61 0v123q0 104 30 197.5t78 163t106 132.5t116.5 116t106.5 102t78 103t30 107q0 68 -36.5 106t-98.5 38q-65 0 -103.5 -50t-37.5 -147l-269 19q0 183 114 303.5t296 120.5q194 0 302 -108t108 -282q0 -87 -26.5 -164.5t-68.5 -134.5t-93 -108.5t-102 -97t-93 -89.5 t-68.5 -96t-26.5 -108h478l-41 -246h-779z" />
<glyph unicode="3" horiz-adv-x="942" d="M41 389l260 29q4 -95 46.5 -149t103.5 -54q68 0 110.5 53t42.5 160q0 227 -194 227v205q163 0 163 205q0 58 -36 90.5t-86 32.5q-48 0 -84.5 -42.5t-36.5 -111.5l-258 37q8 157 107.5 260t271.5 103t283.5 -96.5t111.5 -256.5q0 -111 -52.5 -195t-131.5 -116v-4 q42 -15 77.5 -39.5t69 -65t53 -105t19.5 -146.5q0 -210 -120 -330.5t-310 -120.5q-97 0 -176 35.5t-129.5 95.5t-77.5 137t-27 162z" />
<glyph unicode="4" horiz-adv-x="952" d="M-10 225l491 1168h318v-942h92v-226h-92v-225h-277v225h-532zM307 451h215v512h-4z" />
<glyph unicode="5" horiz-adv-x="931" d="M0 195l195 174q30 -75 78.5 -114.5t105.5 -39.5q89 0 147 75.5t58 221.5q0 135 -54.5 203.5t-138.5 68.5q-83 0 -142.5 -25.5t-125.5 -84.5l51 719h594l-41 -226h-348l-21 -225q77 45 162 45q156 0 253 -125.5t97 -349.5q0 -261 -127.5 -407t-343.5 -146 q-130 0 -232 66.5t-167 169.5z" />
<glyph unicode="6" horiz-adv-x="972" d="M61 461q0 192 63 356.5t169 327.5q133 206 168 248h295q-63 -82 -124 -174t-95.5 -149.5t-96.5 -164.5q214 58 342.5 -65t128.5 -377q0 -240 -109 -372t-321 -132q-205 0 -312.5 129t-107.5 373zM338 461q0 -256 143 -256q71 0 112.5 68.5t41.5 197.5q0 240 -148 240 q-70 0 -109.5 -64t-39.5 -186z" />
<glyph unicode="7" horiz-adv-x="849" d="M-10 1147l41 246h798v-246l-368 -1147h-307l389 1147h-553z" />
<glyph unicode="8" horiz-adv-x="1003" d="M61 430q0 216 183 350q-131 114 -131 264q0 181 108.5 285.5t280.5 104.5q179 0 284 -103.5t105 -286.5q0 -156 -125 -262q82 -60 129 -158.5t47 -213.5q0 -205 -115 -328t-325 -123q-212 0 -326.5 126t-114.5 345zM338 430q0 -107 46 -166t118 -59t118 58.5t46 166.5 q0 107 -43.5 166t-120.5 59t-120.5 -59t-43.5 -166zM369 1044q0 -78 36.5 -120.5t96.5 -42.5t96.5 42.5t36.5 120.5q0 79 -36.5 121.5t-96.5 42.5q-62 0 -97.5 -42t-35.5 -122z" />
<glyph unicode="9" horiz-adv-x="972" d="M61 930q0 240 109.5 372t321.5 132q205 0 312 -129t107 -373q0 -192 -62.5 -357t-168.5 -327q-133 -206 -168 -248h-295q63 82 124 174t94.5 148t96.5 165q-214 -58 -342.5 65.5t-128.5 377.5zM338 922q0 -240 147 -240q70 0 109.5 63.5t40.5 186.5q3 256 -143 256 q-71 0 -112.5 -68.5t-41.5 -197.5z" />
<glyph unicode=":" horiz-adv-x="471" d="M102 0v287h267v-287h-267zM102 737v287h267v-287h-267z" />
<glyph unicode=";" horiz-adv-x="471" d="M20 -225q82 82 82 225v287h267v-287q0 -108 -59.5 -195.5t-166.5 -132.5zM102 737v287h267v-287h-267z" />
<glyph unicode="&#x3c;" horiz-adv-x="1044" d="M123 543v164l799 460v-266l-533 -276l533 -277v-266z" />
<glyph unicode="=" horiz-adv-x="1044" d="M123 328v215h799v-215h-799zM123 707v215h799v-215h-799z" />
<glyph unicode="&#x3e;" horiz-adv-x="1044" d="M123 82v266l532 277l-532 276v266l799 -460v-164z" />
<glyph unicode="?" horiz-adv-x="860" d="M41 1055q-15 233 85 347t304 114q189 0 289 -100.5t100 -248.5q0 -73 -15 -134.5t-38.5 -102t-53.5 -80.5t-59.5 -69.5t-56.5 -68t-45 -77.5t-24 -97.5t5 -127.5h-266q-20 102 -7 186.5t45 141t75 110t81.5 94.5t65.5 95t27 110q0 64 -35.5 93.5t-87.5 29.5 q-167 0 -139 -226zM266 0v287h266v-287h-266z" />
<glyph unicode="@" horiz-adv-x="1228" d="M41 410q0 181 43.5 328.5t120 245.5t181.5 151t228 53q122 0 228 -52.5t182.5 -146.5t120 -233t43.5 -305q0 -221 -71.5 -326t-194.5 -105q-103 0 -172 103q-76 -103 -189 -103q-97 0 -155 104t-58 286q0 194 54.5 291.5t150.5 97.5q88 0 143 -82v61h185v-409 q0 -144 69 -144q30 0 42 50.5t12 175.5q0 244 -108.5 393t-281.5 149q-159 0 -274 -164.5t-115 -418.5q0 -160 54.5 -296t143.5 -213t191 -77q80 0 142 28t125 91l225 -84q-125 -126 -232.5 -177t-259.5 -51q-162 0 -293 100t-205.5 278.5t-74.5 400.5zM532 410 q0 -109 18.5 -157t63.5 -48t63.5 48t18.5 157t-18.5 156.5t-63.5 47.5t-63.5 -47.5t-18.5 -156.5z" />
<glyph unicode="A" horiz-adv-x="983" d="M0 0l348 1475h287l348 -1475h-297l-55 276h-279l-55 -276h-297zM401 512h181l-70 348q-14 81 -18 123h-5q-4 -42 -18 -123z" />
<glyph unicode="B" horiz-adv-x="993" d="M102 0v1475h390q96 0 178.5 -31.5t136.5 -84t84.5 -118.5t30.5 -135q0 -119 -54.5 -205.5t-138.5 -105.5v-4q45 -14 84 -40t74 -67t55.5 -103.5t20.5 -138.5q0 -208 -127 -325t-344 -117h-390zM389 246q133 0 199.5 44.5t66.5 160.5t-66.5 160t-199.5 44v-409zM389 881 q114 0 169.5 41t55.5 143q0 106 -50 145t-175 39v-368z" />
<glyph unicode="C" horiz-adv-x="1024" d="M51 737q0 367 131 573t361 206q374 0 450 -441l-276 -61q-11 105 -56 170t-118 65q-205 0 -205 -512t205 -512q75 0 117 60.5t57 185.5l287 -61q-96 -451 -461 -451q-231 0 -361.5 205t-130.5 573z" />
<glyph unicode="D" horiz-adv-x="1075" d="M102 0v1475h349q124 0 228 -47t181.5 -137t120.5 -232t43 -322q0 -181 -42.5 -322.5t-119.5 -231.5t-181 -136.5t-230 -46.5h-349zM389 266q181 0 254.5 110t73.5 361t-73.5 361t-254.5 110v-942z" />
<glyph unicode="E" horiz-adv-x="819" d="M102 0v1475h635l21 -267h-369v-327h328v-256h-328v-359h369l-21 -266h-635z" />
<glyph unicode="F" horiz-adv-x="788" d="M102 0v1475h635l21 -267h-369v-327h328v-256h-328v-625h-287z" />
<glyph unicode="G" d="M51 737q0 368 130.5 573.5t361.5 205.5q183 0 301 -116t149 -321l-266 -63q-16 104 -63.5 168.5t-120.5 64.5q-205 0 -205 -512t205 -512q38 0 64 7t51 28.5t41 42t49 66.5v225h-164l41 246h389v-594q-62 -90 -123 -149t-150.5 -98.5t-197.5 -39.5q-231 0 -361.5 205 t-130.5 573z" />
<glyph unicode="H" d="M102 0v1475h287v-574h307v574h287v-1475h-287v655h-307v-655h-287z" />
<glyph unicode="I" horiz-adv-x="491" d="M102 0v1475h287v-1475h-287z" />
<glyph unicode="J" horiz-adv-x="593" d="M0 61l61 267q30 -40 64 -54.5t57 1t23 57.5v1143h287v-1229q0 -144 -58.5 -215.5t-167.5 -71.5q-76 0 -148 28t-118 74z" />
<glyph unicode="K" horiz-adv-x="1003" d="M102 0v1475h287v-615h4l262 615h308l-328 -717l369 -758h-328l-283 655h-4v-655h-287z" />
<glyph unicode="L" horiz-adv-x="716" d="M102 0v1475h287v-1209h328l-41 -266h-574z" />
<glyph unicode="M" horiz-adv-x="1351" d="M102 0v1475h287l248 -656q31 -82 37 -123h4q6 41 37 123l248 656h286v-1475h-286v860h-5q-12 -42 -36 -102l-246 -615l-246 615q-25 63 -37 102h-4v-860h-287z" />
<glyph unicode="N" d="M102 0v1475h287l268 -717q33 -97 35 -103h4v820h287v-1475h-287l-268 717q-4 12 -11 31t-13 36t-11 35h-4v-819h-287z" />
<glyph unicode="O" d="M51 737q0 364 131 571.5t361 207.5q231 0 361 -205.5t130 -573.5t-130 -573t-361 -205t-361.5 205t-130.5 573zM338 737q0 -512 205 -512t205 512t-205 512t-205 -512z" />
<glyph unicode="P" horiz-adv-x="942" d="M102 0v1475h328q237 0 374.5 -110.5t137.5 -320.5q0 -140 -74 -242q-75 -102 -200 -150q-103 -39 -226 -40q-26 0 -53 2v-614h-287zM389 881q54 0 91 3t72.5 13t56.5 27.5t33.5 47.5t12.5 72q0 52 -17.5 85.5t-55 50.5t-81.5 22.5t-112 5.5v-327z" />
<glyph unicode="Q" d="M51 737q0 364 131 571.5t361 207.5q231 0 361 -205.5t130 -573.5q0 -297 -88 -493l129 -244h-205l-39 74q-115 -115 -288 -115q-231 0 -361.5 205t-130.5 573zM338 737q0 -512 205 -512q93 0 147 113l-147 276h200q5 92 5 123q0 512 -205 512t-205 -512z" />
<glyph unicode="R" horiz-adv-x="983" d="M102 0v1475h328q237 0 374.5 -110.5t137.5 -320.5q0 -138 -72.5 -239t-197.5 -152l250 -653h-308l-211 614h-14v-614h-287zM389 881q54 0 91 3t72.5 13t56.5 27.5t33.5 47.5t12.5 72q0 52 -17.5 85.5t-55 50.5t-81.5 22.5t-112 5.5v-327z" />
<glyph unicode="S" horiz-adv-x="890" d="M10 287l226 123q30 -89 85 -137t119 -48q65 0 104.5 35.5t39.5 108.5q0 45 -29.5 93t-76.5 92.5t-103.5 92.5t-113.5 102t-104 112.5t-76.5 132.5t-29.5 153q0 170 103 269.5t286 99.5q156 0 256 -74t142 -201l-234 -94q-30 74 -65 98.5t-99 24.5q-47 0 -74.5 -31.5 t-27.5 -91.5q0 -50 29.5 -98.5t76.5 -92t103.5 -89.5t113 -98t103.5 -109t76.5 -132.5t29.5 -158.5q0 -206 -117.5 -308t-312.5 -102q-88 0 -161 27.5t-124 76t-85.5 103t-59.5 121.5z" />
<glyph unicode="T" horiz-adv-x="778" d="M0 1208l31 267h717l30 -267h-246v-1208h-286v1208h-246z" />
<glyph unicode="U" d="M102 430v1045h287v-1045q0 -104 41 -154.5t113 -50.5t112.5 50.5t40.5 154.5v1045h287v-1045q0 -221 -111 -346t-329 -125t-329.5 125t-111.5 346z" />
<glyph unicode="V" horiz-adv-x="921" d="M0 1475h307l137 -881q13 -92 15 -123h4q9 87 14 123l137 881h308l-287 -1475h-348z" />
<glyph unicode="W" horiz-adv-x="1392" d="M20 1475h308l108 -738q10 -72 13 -123h4q5 52 16 123l125 738h205l125 -738q12 -82 16 -123h4q1 14 3 39.5t4 46t5 37.5l109 738h307l-246 -1475h-286l-125 737q-11 57 -17 123h-4q-4 -41 -16 -123l-125 -737h-287z" />
<glyph unicode="X" horiz-adv-x="921" d="M20 0l277 737l-266 738h297l108 -349q13 -40 23 -92h4q8 41 22 92l109 349h297l-266 -738l276 -737h-313l-103 348q-18 58 -22 92h-4q-1 -6 -23 -92l-102 -348h-314z" />
<glyph unicode="Y" horiz-adv-x="901" d="M-20 1475h307l139 -574q18 -75 23 -123h4q6 60 22 123l139 574h308l-328 -1045v-430h-287v430z" />
<glyph unicode="Z" horiz-adv-x="860" d="M31 0l420 1208h-400l41 267h758l-420 -1209h399l-41 -266h-757z" />
<glyph unicode="[" horiz-adv-x="552" d="M102 -184v1761l369 20l21 -245h-113v-1311h113l-21 -246z" />
<glyph unicode="\" horiz-adv-x="696" d="M0 1597h205l491 -1802h-204z" />
<glyph unicode="]" horiz-adv-x="552" d="M61 41h113v1311h-113l21 245l369 -20v-1761l-369 -21z" />
<glyph unicode="^" horiz-adv-x="860" d="M82 655l205 820h286l205 -820h-246l-102 553l-102 -553h-246z" />
<glyph unicode="_" horiz-adv-x="819" d="M0 -143h819v-226h-819v226z" />
<glyph unicode="`" horiz-adv-x="491" d="M82 1475h225l103 -287h-164z" />
<glyph unicode="a" horiz-adv-x="890" d="M51 512q0 140 24.5 248t66 170.5t91 93.5t105.5 31q150 0 211 -133h4v102h256v-1024h-256v102h-4q-61 -133 -211 -133q-56 0 -105.5 31t-91 93.5t-66 170.5t-24.5 248zM317 512q0 -307 123 -307q113 0 113 307t-113 307q-123 0 -123 -307z" />
<glyph unicode="b" horiz-adv-x="890" d="M82 0v1495h256v-573h4q61 133 211 133q56 0 105.5 -31t91 -93.5t66 -170.5t24.5 -248t-24.5 -248t-66 -170.5t-91 -93.5t-105.5 -31q-150 0 -211 133h-4v-102h-256zM338 512q0 -307 113 -307q122 0 122 307t-122 307q-113 0 -113 -307z" />
<glyph unicode="c" horiz-adv-x="778" d="M51 512q0 148 31.5 257t87 169.5t122.5 88.5t148 28q235 0 308 -256l-195 -82q-16 64 -41.5 93.5t-71.5 29.5q-34 0 -60 -28.5t-44.5 -104.5t-18.5 -195q0 -307 123 -307q46 0 67 20.5t36 81.5l205 -61q-34 -118 -113.5 -197.5t-194.5 -79.5q-81 0 -148 28t-122.5 88.5 t-87 169.5t-31.5 257z" />
<glyph unicode="d" horiz-adv-x="890" d="M51 512q0 140 24.5 248t66 170.5t91 93.5t105.5 31q150 0 211 -133h4v573h256v-1495h-256v102h-4q-61 -133 -211 -133q-56 0 -105.5 31t-91 93.5t-66 170.5t-24.5 248zM317 512q0 -307 123 -307q113 0 113 307t-113 307q-123 0 -123 -307z" />
<glyph unicode="e" horiz-adv-x="860" d="M51 512q0 148 31.5 257t87 169.5t122.5 88.5t148 28q163 0 266 -126.5t103 -375.5v-123h-492q0 -104 37 -164.5t86 -60.5q48 0 78.5 20t48.5 70l221 -90q-34 -59 -63.5 -98t-70.5 -72.5t-93.5 -49.5t-120.5 -16q-63 0 -118.5 16.5t-106 56.5t-86.5 101t-57 155.5 t-21 213.5zM317 594h246q0 114 -36 169.5t-87 55.5t-87 -55.5t-36 -169.5z" />
<glyph unicode="f" horiz-adv-x="532" d="M31 799l30 225h62v184q0 161 75.5 224t231.5 63h72v-225q-82 0 -102.5 -19.5t-20.5 -83.5v-143h123v-225h-123v-799h-256v799h-92z" />
<glyph unicode="g" horiz-adv-x="890" d="M51 512q0 140 24.5 248t66 170.5t91 93.5t105.5 31q150 0 211 -133h4v102h256v-1065q0 -179 -95 -274t-253 -95q-121 0 -205.5 29.5t-185.5 101.5l104 177q63 -52 118.5 -77.5t127.5 -25.5q89 0 123 83q20 49 20 117q0 49 -10 107h-4q-61 -133 -211 -133q-56 0 -105.5 31 t-91 93.5t-66 170.5t-24.5 248zM317 512q0 -307 123 -307q113 0 113 307t-113 307q-123 0 -123 -307z" />
<glyph unicode="h" horiz-adv-x="880" d="M82 0v1495h256v-573h4q51 76 105 104.5t147 28.5q41 0 75.5 -13t65 -42.5t47.5 -86t17 -135.5v-778h-256v664q0 79 -17.5 117t-74.5 38q-113 0 -113 -153v-666h-256z" />
<glyph unicode="i" horiz-adv-x="419" d="M82 0v1024h256v-1024h-256zM82 1188v287h256v-287h-256z" />
<glyph unicode="j" horiz-adv-x="419" d="M-31 -164q60 0 86.5 17.5t26.5 74.5v1096h256v-1096q0 -101 -25.5 -168.5t-75.5 -101.5t-115 -44q-36 -6 -81 -6q-34 0 -72 3v225zM82 1188v287h256v-287h-256z" />
<glyph unicode="k" horiz-adv-x="819" d="M82 0v1495h256v-881h4l160 410h276l-215 -512l236 -512h-287l-170 430h-4v-430h-256z" />
<glyph unicode="l" horiz-adv-x="419" d="M82 0v1495h256v-1495h-256z" />
<glyph unicode="m" horiz-adv-x="1300" d="M82 0v1024h256v-102h4q101 133 252 133q64 0 117.5 -36t66.5 -97q55 63 126 98t140 35q91 0 133 -59t42 -177v-819h-256v696q0 123 -93 123q-42 0 -67 -31.5t-25 -91.5v-696h-256v696q0 123 -92 123q-42 0 -67 -31.5t-25 -91.5v-696h-256z" />
<glyph unicode="n" horiz-adv-x="880" d="M82 0v1024h256v-102h4q51 76 105 104.5t147 28.5q41 0 75.5 -13t65 -42.5t47.5 -86t17 -135.5v-778h-256v664q0 79 -17.5 117t-74.5 38q-113 0 -113 -153v-666h-256z" />
<glyph unicode="o" horiz-adv-x="880" d="M51 512q0 118 21 212t57 155t86.5 101.5t106 57.5t118.5 17t118.5 -17t106 -57.5t86.5 -101.5t57 -155t21 -212t-21 -212t-57 -155t-86.5 -101.5t-106 -57.5t-118.5 -17t-118.5 17t-106 57.5t-86.5 101.5t-57 155t-21 212zM317 512q0 -307 123 -307t123 307t-123 307 t-123 -307z" />
<glyph unicode="p" horiz-adv-x="890" d="M82 -389v1413h256v-102h4q61 133 211 133q56 0 105.5 -31t91 -93.5t66 -170.5t24.5 -248t-24.5 -248t-66 -170.5t-91 -93.5t-105.5 -31q-150 0 -211 133h-4v-491h-256zM338 512q0 -307 113 -307q122 0 122 307t-122 307q-113 0 -113 -307z" />
<glyph unicode="q" horiz-adv-x="890" d="M51 512q0 140 24.5 248t66 170.5t91 93.5t105.5 31q150 0 211 -133h4v102h256v-1413h-256v491h-4q-61 -133 -211 -133q-56 0 -105.5 31t-91 93.5t-66 170.5t-24.5 248zM317 512q0 -307 123 -307q113 0 113 307t-113 307q-123 0 -123 -307z" />
<glyph unicode="r" horiz-adv-x="593" d="M82 0v1024h256v-123h4q86 154 252 154v-256q-28 3 -52 3q-96 0 -144 -46q-60 -58 -60 -193v-563h-256z" />
<glyph unicode="s" horiz-adv-x="716" d="M20 123l142 168q77 -92 153 -92q95 0 95 88q0 30 -26 63.5t-64.5 63.5t-84 70t-84 80.5t-64.5 96.5t-26 117q0 114 79.5 195.5t207.5 81.5q221 0 307 -123l-127 -154q-59 70 -122 70q-31 0 -54.5 -21t-23.5 -49q0 -30 36 -68t87 -79.5t102 -90t87 -115t36 -138.5 q0 -136 -89.5 -227t-238.5 -91q-110 0 -184 38t-144 116z" />
<glyph unicode="t" horiz-adv-x="542" d="M31 799l30 225h62v184l256 62v-246h123v-225h-123v-492q1 -67 39 -81q12 -4 23 -4q29 0 61 24l20 -215q-61 -38 -103 -50t-112 -12q-87 0 -135.5 55t-48.5 160v615h-92z" />
<glyph unicode="u" horiz-adv-x="880" d="M82 246v778h256v-664q0 -78 19.5 -116.5t76.5 -38.5q109 0 109 153v666h256v-1024h-256v102h-4q-51 -76 -105 -104.5t-147 -28.5q-41 0 -75.5 13t-65 42.5t-47.5 86t-17 135.5z" />
<glyph unicode="v" horiz-adv-x="737" d="M10 1024h277l80 -532q6 -36 10 -103h4q4 67 10 103l80 532h277l-226 -1024h-286z" />
<glyph unicode="w" horiz-adv-x="1187" d="M20 1024h267l84 -471q13 -68 16 -123h4q3 31 21 123l100 471h205l100 -471q18 -92 21 -123h4q8 82 16 123l84 471h266l-204 -1024h-267l-104 573q-10 51 -17 123h-4q-8 -82 -16 -123l-104 -573h-267z" />
<glyph unicode="x" horiz-adv-x="798" d="M20 0l246 518l-235 506h266l72 -164q16 -35 28 -82h4q7 28 31 84l70 162h266l-236 -506l246 -518h-276l-78 184q-11 24 -23 72h-4q-11 -42 -22 -72l-78 -184h-277z" />
<glyph unicode="y" horiz-adv-x="706" d="M10 1024h266l86 -348q16 -68 19 -103h4q6 62 16 103l80 348h267l-328 -1413h-266l116 491z" />
<glyph unicode="z" horiz-adv-x="727" d="M20 0l287 778h-246l41 246h574l-287 -778h287l-41 -246h-615z" />
<glyph unicode="{" horiz-adv-x="573" d="M41 594v205q61 0 81.5 20.5t20.5 81.5v383q0 176 60.5 244.5t226.5 68.5h102v-204q-84 0 -108.5 -12t-24.5 -70v-451q0 -35 -3 -58t-12 -46.5t-28 -38t-49 -21.5q56 -14 74 -53.5t18 -110.5v-450q0 -58 24.5 -70t108.5 -12v-205h-102q-167 0 -227 69t-60 251v377 q0 62 -20.5 82t-81.5 20z" />
<glyph unicode="|" horiz-adv-x="696" d="M256 -205v1802h184v-1802h-184z" />
<glyph unicode="}" horiz-adv-x="573" d="M41 0q84 0 108.5 12t24.5 70v450q0 35 3 58t12 46.5t28 38t49 21.5q-56 14 -74 53.5t-18 110.5v451q0 58 -24.5 70t-108.5 12v204h102q166 0 226.5 -68.5t60.5 -244.5v-383q0 -61 20 -81.5t82 -20.5v-205q-62 0 -82 -20t-20 -82v-377q0 -182 -60 -251t-227 -69h-102v205z " />
<glyph unicode="~" horiz-adv-x="946" d="M43 676q-7 104 9.5 178t55 114.5t87.5 58t114 17.5q49 0 99.5 -22.5t85 -49t69 -49t53.5 -22.5q47 0 64.5 24.5t17.5 98.5h205q7 -104 -9.5 -178t-55 -114.5t-87.5 -58.5t-114 -18q-49 0 -99.5 22.5t-85 49.5t-69 49.5t-53.5 22.5q-47 0 -64.5 -24.5t-17.5 -98.5h-205z " />
<glyph unicode="&#xa1;" horiz-adv-x="471" d="M102 -389v1065h267v-1065h-267zM102 799v286h267v-286h-267z" />
<glyph unicode="&#xa2;" horiz-adv-x="778" d="M51 512q0 129 23.5 227.5t66.5 161t97 98t120 48.5v182h164v-182q165 -38 226 -248l-195 -82q-16 64 -41.5 93.5t-71.5 29.5q-34 0 -60 -28.5t-44.5 -104.5t-18.5 -195q0 -307 123 -307q46 0 67 20.5t36 81.5l205 -61q-27 -94 -85 -166.5t-141 -97.5v-187h-164v182 q-66 13 -120 48.5t-97 98t-66.5 161t-23.5 227.5z" />
<glyph unicode="&#xa3;" horiz-adv-x="860" d="M41 0v225q90 90 122 214t32 360h-134l41 184h93v137q0 153 82.5 233.5t240.5 80.5q198 0 291 -134l-98 -122q-53 48 -110 53.5t-93.5 -26.5t-36.5 -87v-135h184l-41 -184h-143q-4 -222 -33.5 -344t-89.5 -209h430l-41 -246h-696z" />
<glyph unicode="&#xa4;" horiz-adv-x="1054" d="M0 471l20 164h103v123h-123l20 164h115q58 512 418 512q158 0 263 -111t136 -299l-245 -61q-16 112 -52 168.5t-102 56.5q-113 0 -143 -266h225l-21 -164h-215v-123h236l-21 -164h-204q30 -266 143 -266q62 0 101.5 60t52.5 177l256 -53q-49 -212 -145 -321t-265 -109 q-358 0 -418 512h-135z" />
<glyph unicode="&#xa5;" horiz-adv-x="962" d="M41 225v185h307l-39 122h-268v185h211l-211 676h287l153 -635l154 635h287l-211 -676h211v-185h-269l-39 -122h308v-185h-308v-225h-266v225h-307z" />
<glyph unicode="&#xa6;" horiz-adv-x="716" d="M246 0v614h225v-614h-225zM246 778v615h225v-615h-225z" />
<glyph unicode="&#xa7;" horiz-adv-x="983" d="M41 696q0 86 35 162.5t79.5 122.5t100.5 84q-113 113 -113 246q0 82 28.5 145.5t77.5 102.5t110.5 59t132.5 20q66 0 118.5 -12.5t96 -40t68 -48.5t65.5 -62l-123 -185q-48 64 -99.5 93.5t-125.5 29.5q-82 0 -82 -102q0 -37 29.5 -73.5t76.5 -70t103.5 -70.5t113 -82.5 t103.5 -98t76.5 -125.5t29.5 -156q0 -122 -60.5 -213.5t-148.5 -151.5q107 -112 107 -250q0 -82 -31.5 -145.5t-86.5 -102.5t-123.5 -59t-147.5 -20q-185 0 -369 184l143 184q48 -65 107.5 -104t118.5 -39q60 0 91 27.5t31 74.5q0 41 -29.5 80t-76.5 72.5t-103.5 70 t-113 80.5t-103.5 95t-76.5 123t-29.5 155zM287 717q0 -56 39.5 -111.5t78.5 -86.5t124 -89q13 -9 20 -14q55 26 101 80t46 118q0 36 -15.5 71.5t-35.5 62t-60.5 60.5t-67.5 54t-79 56q-57 -26 -104 -80.5t-47 -120.5z" />
<glyph unicode="&#xa8;" horiz-adv-x="675" d="M82 1188v287h205v-287h-205zM389 1188v287h205v-287h-205z" />
<glyph unicode="&#xa9;" horiz-adv-x="1290" d="M51 737q0 363 164 571t430 208t430 -208t164 -571q0 -181 -44 -328.5t-122.5 -245.5t-188 -151t-239.5 -53t-239.5 53t-188 151t-122.5 245.5t-44 328.5zM215 737q0 -274 121.5 -444t308.5 -170t308.5 170t121.5 444t-121.5 444.5t-308.5 170.5t-308.5 -170.5 t-121.5 -444.5zM338 737q0 227 83.5 354.5t223.5 127.5q121 0 196.5 -75.5t90.5 -201.5l-184 -41q-15 76 -35 99.5t-68 23.5q-47 0 -74.5 -75.5t-27.5 -211.5t27.5 -211t74.5 -75t67.5 23.5t35.5 98.5l184 -41q-15 -126 -90.5 -201t-196.5 -75q-140 0 -223.5 127t-83.5 354z " />
<glyph unicode="&#xaa;" horiz-adv-x="614" d="M41 1096q0 84 20 148.5t52 99.5t66 52t67 17q99 0 143 -72v52h174v-594h-174v51q-44 -72 -143 -72q-33 0 -67 17.5t-66 52.5t-52 99.5t-20 148.5zM61 512v184h502v-184h-502zM236 1096q0 -154 71 -154q72 0 72 154q0 153 -72 153q-71 0 -71 -153z" />
<glyph unicode="&#xab;" horiz-adv-x="778" d="M61 573l103 328h225l-102 -328l102 -327h-225zM389 573l103 328h225l-103 -328l103 -327h-225z" />
<glyph unicode="&#xac;" horiz-adv-x="1044" d="M123 512v225h799v-512h-205v287h-594z" />
<glyph unicode="&#xad;" horiz-adv-x="573" d="M82 512v225h410v-225h-410z" />
<glyph unicode="&#xae;" horiz-adv-x="942" d="M82 1024q0 119 31.5 214.5t86 155t124 91t147.5 31.5t147.5 -31.5t124 -91t86 -155t31.5 -214.5t-31.5 -214.5t-86 -155t-124 -91t-147.5 -31.5t-147.5 31.5t-124 91t-86 155t-31.5 214.5zM205 1024q0 -169 71.5 -269t194.5 -100t194.5 100t71.5 269t-71.5 269 t-194.5 100t-194.5 -100t-71.5 -269zM328 778v512h143q80 0 132 -39.5t52 -113.5q0 -60 -17.5 -90t-64.5 -54l62 -215h-123l-51 205h-10v-205h-123zM451 1085q37 0 52.5 2t27.5 13.5t12 36.5q0 15 -4.5 25t-10 15t-19.5 7.5t-24.5 3t-33.5 0.5v-103z" />
<glyph unicode="&#xaf;" horiz-adv-x="860" d="M82 1188v184h696v-184h-696z" />
<glyph unicode="&#xb0;" horiz-adv-x="593" d="M41 1219q0 106 75 181t181 75t181 -75t75 -181t-75 -181t-181 -75t-181 75t-75 181zM184 1219q0 -46 33.5 -79.5t79.5 -33.5t79.5 33.5t33.5 79.5t-33.5 79t-79.5 33t-79.5 -33t-33.5 -79z" />
<glyph unicode="&#xb1;" horiz-adv-x="1044" d="M123 0v225h799v-225h-799zM123 553v225h287v246h225v-246h287v-225h-287v-246h-225v246h-287z" />
<glyph unicode="&#xb2;" horiz-adv-x="737" d="M102 573v144q0 67 26 124t64.5 92.5t84 67.5t84 53t64.5 45.5t26 47.5q0 35 -20 58.5t-62 23.5q-33 0 -57.5 -32.5t-24.5 -90.5l-185 41q0 110 75.5 188t191.5 78q135 0 210.5 -66t75.5 -200q0 -58 -24 -105.5t-60.5 -77.5t-79 -57.5t-79 -47.5t-60.5 -46.5t-24 -54.5 h307l-21 -185h-512z" />
<glyph unicode="&#xb3;" horiz-adv-x="716" d="M82 799l184 41q0 -46 23.5 -79.5t58.5 -33.5q82 0 82 92q0 123 -123 123v143q123 0 123 103q0 29 -25 45t-57 16q-31 0 -56.5 -29t-25.5 -73l-164 41q0 94 70 159.5t176 65.5q117 0 191.5 -54.5t74.5 -170.5q0 -72 -36.5 -119t-85.5 -55q54 -9 98.5 -60t44.5 -135 q0 -266 -287 -266q-110 0 -180.5 63t-85.5 183z" />
<glyph unicode="&#xb4;" horiz-adv-x="491" d="M82 1188l102 287h226l-164 -287h-164z" />
<glyph unicode="&#xb5;" horiz-adv-x="880" d="M82 -389v1413h256v-664q0 -77 19.5 -116t74.5 -39q111 0 111 155v664h256v-1024h-256v98q-41 -55 -74.5 -76.5t-75.5 -21.5q-33 0 -55 10v-399h-256z" />
<glyph unicode="&#xb6;" horiz-adv-x="1105" d="M41 1126q0 148 102 248.5t267 100.5h594v-1475h-246v1270h-103v-1270h-245v778h-21q-145 0 -246.5 101.5t-101.5 246.5z" />
<glyph unicode="&#xb7;" horiz-adv-x="491" d="M102 492v286h287v-286h-287z" />
<glyph unicode="&#xb8;" horiz-adv-x="368" d="M41 -430q35 35 51.5 131t-10.5 176h205q29 -102 -11.5 -201.5t-121.5 -156.5z" />
<glyph unicode="&#xb9;" horiz-adv-x="491" d="M82 1065v246l102 82h185v-820h-205v574z" />
<glyph unicode="&#xba;" horiz-adv-x="614" d="M41 1096q0 88 24 152.5t65 99t85 50t92 15.5q49 0 93 -15.5t84.5 -50t64.5 -99t24 -152.5t-24 -153t-64.5 -99t-84.5 -50t-93 -16q-38 0 -73.5 9t-71.5 32t-62 58t-42.5 91.5t-16.5 127.5zM61 512v184h492v-184h-492zM236 1096q0 -154 71 -154q72 0 72 154q0 153 -72 153 q-71 0 -71 -153z" />
<glyph unicode="&#xbb;" horiz-adv-x="778" d="M61 246l103 327l-103 328h226l102 -328l-102 -327h-226zM389 246l103 327l-103 328h225l103 -328l-103 -327h-225z" />
<glyph unicode="&#xbc;" horiz-adv-x="1351" d="M82 1065v246l102 82h185v-820h-205v574zM246 0l553 1393h225l-553 -1393h-225zM696 123l328 696h205v-532h61v-164h-61v-123h-205v123h-328zM942 287h82v184z" />
<glyph unicode="&#xbd;" horiz-adv-x="1474" d="M82 1065v246l102 82h185v-820h-205v574zM246 0l553 1393h225l-553 -1393h-225zM840 0v143q0 58 19 108.5t50 85t68 64t74 51.5t68 41t50 39.5t19 40.5q0 35 -20 58.5t-62 23.5q-33 0 -57.5 -32.5t-24.5 -90.5l-184 41q0 110 75 188.5t191 78.5q135 0 211 -66.5t76 -200.5 q0 -58 -24.5 -105.5t-60.5 -77.5t-79 -57.5t-79 -47.5t-60.5 -46.5t-24.5 -54.5h307l-20 -184h-512z" />
<glyph unicode="&#xbe;" horiz-adv-x="1536" d="M61 799l185 41q0 -46 23.5 -79.5t58.5 -33.5q82 0 82 92q0 123 -123 123v143q123 0 123 103q0 29 -25 45t-57 16q-31 0 -56.5 -29t-25.5 -73l-164 41q0 94 70 159.5t176 65.5q117 0 191.5 -54.5t74.5 -170.5q0 -72 -36.5 -119t-86.5 -55q54 -9 98.5 -60t44.5 -135 q0 -266 -286 -266q-110 0 -181 63t-86 183zM430 0l553 1393h225l-553 -1393h-225zM881 123l327 696h205v-532h62v-164h-62v-123h-205v123h-327zM1126 287h82v184z" />
<glyph unicode="&#xbf;" horiz-adv-x="860" d="M41 -61q0 73 15 134.5t38.5 102t53.5 80.5t59.5 69.5t56.5 68t45 77.5t24 97.5t-5 127.5h266q20 -102 7 -186.5t-45 -141t-75 -110t-81.5 -94.5t-65.5 -95t-27 -110q0 -64 35.5 -93.5t87.5 -29.5q166 0 139 225l250 -10q15 -233 -85 -347t-304 -114q-189 0 -289 100.5 t-100 248.5zM328 819v287h266v-287h-266z" />
<glyph unicode="&#xc0;" horiz-adv-x="983" d="M0 0l332 1401l82 -141h221l-76 215h76l348 -1475h-297l-55 276h-279l-55 -276h-297zM266 1577h226l102 -287h-164zM401 512h181l-70 348q-14 81 -18 123h-5q-4 -42 -18 -123z" />
<glyph unicode="&#xc1;" horiz-adv-x="983" d="M0 0l348 1475h76l-76 -215h221l82 141l332 -1401h-297l-55 276h-279l-55 -276h-297zM389 1290l103 287h225l-164 -287h-164zM401 512h181l-70 348q-14 81 -18 123h-5q-4 -42 -18 -123z" />
<glyph unicode="&#xc2;" horiz-adv-x="983" d="M0 0l297 1260h156l39 120l38 -120h156l297 -1260h-297l-55 276h-279l-55 -276h-297zM246 1290l143 287h205l143 -287h-184l-61 185l-62 -185h-184zM401 512h181l-70 348q-14 81 -18 123h-5q-4 -42 -18 -123z" />
<glyph unicode="&#xc3;" horiz-adv-x="983" d="M0 0l303 1280h76q0 82 10 82q13 0 64 -31q117 -71 182 -71q28 0 49 6l299 -1266h-297l-55 276h-279l-55 -276h-297zM205 1311v61q0 43 5.5 76t19.5 64t44 48t74 17q35 0 88 -25.5t97.5 -51t60.5 -25.5q29 0 35 15t6 66h143v-61q0 -43 -5.5 -76t-19.5 -64t-44 -48t-74 -17 q-35 0 -88 26t-97.5 51.5t-60.5 25.5q-26 0 -33.5 -16.5t-7.5 -65.5h-143zM401 512h181l-70 348q-14 81 -18 123h-5q-4 -42 -18 -123z" />
<glyph unicode="&#xc4;" horiz-adv-x="983" d="M0 0l348 1475h287l348 -1475h-297l-55 276h-279l-55 -276h-297zM41 1208v267h205v-267h-205zM401 512h181l-70 348q-14 81 -18 123h-5q-4 -42 -18 -123zM737 1208v267h205v-267h-205z" />
<glyph unicode="&#xc5;" horiz-adv-x="983" d="M0 0l313 1323q26 -47 72.5 -75.5t106.5 -28.5q54 0 103.5 27.5t76.5 76.5l311 -1323h-297l-55 276h-279l-55 -276h-297zM317 1423q0 72 51.5 123t123.5 51t123 -51t51 -123t-51 -123t-123 -51t-123.5 51t-51.5 123zM401 512h181l-70 348q-14 81 -18 123h-5 q-4 -42 -18 -123zM420 1423q0 -29 21.5 -50t50.5 -21t50 21t21 50t-21 50.5t-50 21.5t-50.5 -21.5t-21.5 -50.5z" />
<glyph unicode="&#xc6;" horiz-adv-x="1392" d="M0 0l553 1475h758l20 -267h-368v-327h327v-256h-327v-359h368l-20 -266h-635v266h-283l-86 -266h-307zM473 512h203v635h-4q-10 -62 -31 -123z" />
<glyph unicode="&#xc7;" horiz-adv-x="1024" d="M51 737q0 367 131 573t361 206q374 0 450 -441l-276 -61q-11 105 -56 170t-118 65q-205 0 -205 -512t205 -512q75 0 117 60.5t57 185.5l287 -61q-73 -349 -310 -428q12 83 -18 172h-275q48 -68 33 -183q-182 46 -282.5 245t-100.5 521zM410 -184q35 35 51.5 131 t-10.5 176h204q29 -102 -11.5 -202t-121.5 -157z" />
<glyph unicode="&#xc8;" horiz-adv-x="819" d="M102 0v1475h146l125 -215h221l-76 215h219l21 -267h-369v-327h328v-256h-328v-359h369l-21 -266h-635zM225 1577h226l102 -287h-164z" />
<glyph unicode="&#xc9;" horiz-adv-x="819" d="M102 0v1475h220l-76 -215h221l125 215h145l21 -267h-369v-327h328v-256h-328v-359h369l-21 -266h-635zM287 1290l102 287h225l-163 -287h-164z" />
<glyph unicode="&#xca;" horiz-adv-x="819" d="M102 0v1475h142l-109 -215h256l39 120l39 -120h256l-109 215h121l21 -267h-369v-327h328v-256h-328v-359h369l-21 -266h-635zM184 1290l144 287h204l144 -287h-184l-62 185l-61 -185h-185z" />
<glyph unicode="&#xcb;" horiz-adv-x="819" d="M102 0v1475h62v-215h502v215h71l21 -267h-369v-327h328v-256h-328v-359h369l-21 -266h-635zM195 1290v287h204v-287h-204zM430 1290v287h205v-287h-205z" />
<glyph unicode="&#xcc;" horiz-adv-x="491" d="M41 1577h225l103 -287h-164zM102 0v1407l86 -147h201v-1260h-287zM334 1475h55v-158z" />
<glyph unicode="&#xcd;" horiz-adv-x="491" d="M102 0v1260h201l86 147v-1407h-287zM102 1317v158h56zM123 1290l102 287h226l-164 -287h-164z" />
<glyph unicode="&#xce;" horiz-adv-x="491" d="M0 1290l143 287h205l144 -287h-185l-61 185l-62 -185h-184zM102 0v1260h105l39 120l39 -120h104v-1260h-287z" />
<glyph unicode="&#xcf;" horiz-adv-x="491" d="M20 1290v266h205v-266h-205zM102 0v1260h287v-1260h-287zM266 1290v266h205v-266h-205z" />
<glyph unicode="&#xd0;" horiz-adv-x="1075" d="M0 655l20 226h82v594h349q124 0 228 -47t181.5 -137t120.5 -232t43 -322q0 -181 -42.5 -322.5t-119.5 -231.5t-181 -136.5t-230 -46.5h-349v655h-102zM389 266q181 0 254.5 110t73.5 361t-73.5 361t-254.5 110v-327h164v-226h-164v-389z" />
<glyph unicode="&#xd1;" d="M102 0v1475h134q-11 -53 -11 -103v-92h205q0 60 4 72l223 -594q33 -97 35 -103h4v605q159 6 164 215h123v-1475h-287l-268 717q-4 12 -11 31t-13 36t-11 35h-4v-819h-287zM256 1311v61q0 43 5.5 76t19.5 64t44 48t74 17q35 0 88 -25.5t97.5 -51t60.5 -25.5q29 0 35 15 t6 66h143v-61q0 -43 -5.5 -76t-19.5 -64t-44 -48t-74 -17q-35 0 -88 26t-97.5 51.5t-60.5 25.5q-26 0 -33.5 -16.5t-7.5 -65.5h-143z" />
<glyph unicode="&#xd2;" d="M51 737q0 287 80.5 478t228.5 262l115 -197h221l-82 229q198 -32 309 -235t111 -537q0 -368 -130 -573t-361 -205t-361.5 205t-130.5 573zM328 1597h225l102 -286h-163zM338 737q0 -512 205 -512t205 512t-205 512t-205 -512z" />
<glyph unicode="&#xd3;" d="M51 737q0 334 111 537t309 235l-82 -229h221l115 197q148 -71 228.5 -262t80.5 -478q0 -368 -130 -573t-361 -205t-361.5 205t-130.5 573zM338 737q0 -512 205 -512t205 512t-205 512t-205 -512zM430 1311l102 286h226l-164 -286h-164z" />
<glyph unicode="&#xd4;" d="M51 737q0 272 75 459.5t214 265.5l-92 -182h256l39 121l39 -121h256l-93 184q139 -76 214 -262.5t75 -464.5q0 -368 -130 -573t-361 -205t-361.5 205t-130.5 573zM297 1311l143 286h205l143 -286h-184l-61 184l-62 -184h-184zM338 737q0 -512 205 -512t205 512t-205 512 t-205 -512z" />
<glyph unicode="&#xd5;" d="M51 737q0 426 174 631v-68h205q0 82 10 82q15 0 64 -30q119 -72 182 -72q120 0 158 109q92 -96 141 -262.5t49 -389.5q0 -368 -130 -573t-361 -205t-361.5 205t-130.5 573zM256 1331v62q0 34 3 61t12 54.5t24.5 46t41.5 30.5t62 12q35 0 88 -25.5t97.5 -51t60.5 -25.5 q29 0 35 15.5t6 66.5h143v-61q0 -43 -5.5 -76t-19.5 -64t-44 -48t-74 -17q-35 0 -88 25.5t-97.5 51t-60.5 25.5q-26 0 -33.5 -16.5t-7.5 -65.5h-143zM338 737q0 -512 205 -512t205 512t-205 512t-205 -512z" />
<glyph unicode="&#xd6;" d="M51 737q0 258 68 441h209v278q94 60 215 60t215 -58v-280h211q65 -177 65 -441q0 -368 -130 -573t-361 -205t-361.5 205t-130.5 573zM92 1208v267h205v-267h-205zM338 737q0 -512 205 -512t205 512t-205 512t-205 -512zM788 1208v267h205v-267h-205z" />
<glyph unicode="&#xd7;" horiz-adv-x="1044" d="M113 369l245 245l-245 246l163 164l246 -246l246 246l164 -164l-246 -246l246 -245l-164 -164l-246 246l-246 -246z" />
<glyph unicode="&#xd8;" d="M51 20l109 183q-109 204 -109 534q0 364 131 571.5t361 207.5q182 0 309 -136l80 136l102 -62l-108 -182q108 -199 108 -535q0 -368 -130 -573t-361 -205q-184 0 -310 135l-79 -135zM338 737q0 -94 10 -211l348 590q-48 133 -153 133q-205 0 -205 -512zM389 358 q51 -133 154 -133q205 0 205 512q0 99 -11 211z" />
<glyph unicode="&#xd9;" d="M102 430v1045h269l18 -33v-1012q0 -104 41 -154.5t113 -50.5t112.5 50.5t40.5 154.5v830h21l-21 57v158h287v-1045q0 -221 -111 -346t-329 -125t-329.5 125t-111.5 346zM348 1577h225l103 -287h-164z" />
<glyph unicode="&#xda;" d="M102 430v1045h287v-158l-20 -57h20v-830q0 -104 41 -154.5t113 -50.5t112.5 50.5t40.5 154.5v1012l19 33h268v-1045q0 -221 -111 -346t-329 -125t-329.5 125t-111.5 346zM410 1290l102 287h225l-164 -287h-163z" />
<glyph unicode="&#xdb;" d="M102 430v1045h254l-108 -215h141v-830q0 -104 41 -154.5t113 -50.5t112.5 50.5t40.5 154.5v830h142l-107 215h252v-1045q0 -221 -111 -346t-329 -125t-329.5 125t-111.5 346zM297 1290l143 287h205l143 -287h-184l-61 185l-62 -185h-184z" />
<glyph unicode="&#xdc;" d="M102 430v1045h185v-297h102v-748q0 -104 41 -154.5t113 -50.5t112.5 50.5t40.5 154.5v748h103v297h184v-1045q0 -221 -111 -346t-329 -125t-329.5 125t-111.5 346zM317 1208v267h205v-267h-205zM563 1208v267h205v-267h-205z" />
<glyph unicode="&#xdd;" horiz-adv-x="901" d="M-20 1475h307l35 -146l-25 -69h43l86 -359q18 -75 23 -123h4q6 60 22 123l119 488l49 86h279l-328 -1045v-430h-287v430zM338 1290l102 287h226l-164 -287h-164z" />
<glyph unicode="&#xde;" horiz-adv-x="942" d="M102 0v1475h287v-287h41q237 0 374.5 -110t137.5 -320q0 -140 -74.5 -242.5t-199.5 -150t-279 -37.5v-328h-287zM389 594q68 0 112 5.5t81.5 22.5t55 50.5t17.5 85.5t-17.5 85.5t-55 50.5t-81.5 22.5t-112 5.5v-328z" />
<glyph unicode="&#xdf;" horiz-adv-x="931" d="M82 0v1167q0 163 105.5 250.5t275.5 87.5q147 0 241.5 -80.5t94.5 -216.5q0 -102 -39 -166.5t-103 -89.5q33 -10 62 -28t59.5 -52.5t52.5 -81t36 -118.5t14 -160q0 -254 -99 -383t-270 -129h-102v225q103 0 153.5 63t50.5 224q0 307 -204 307v217q143 0 143 111 q0 123 -104 123q-52 0 -81.5 -30.5t-29.5 -92.5v-1147h-256z" />
<glyph unicode="&#xe0;" horiz-adv-x="890" d="M51 512q0 140 24.5 248t66 170.5t91 93.5t105.5 31q150 0 211 -133h4v102h256v-1024h-256v102h-4q-61 -133 -211 -133q-56 0 -105.5 31t-91 93.5t-66 170.5t-24.5 248zM225 1475h226l102 -287h-164zM317 512q0 -307 123 -307q113 0 113 307t-113 307q-123 0 -123 -307z " />
<glyph unicode="&#xe1;" horiz-adv-x="890" d="M51 512q0 140 24.5 248t66 170.5t91 93.5t105.5 31q150 0 211 -133h4v102h256v-1024h-256v102h-4q-61 -133 -211 -133q-56 0 -105.5 31t-91 93.5t-66 170.5t-24.5 248zM317 512q0 -307 123 -307q113 0 113 307t-113 307q-123 0 -123 -307zM328 1188l102 287h225 l-163 -287h-164z" />
<glyph unicode="&#xe2;" horiz-adv-x="890" d="M51 512q0 140 24.5 248t66 170.5t91 93.5t105.5 31q150 0 211 -133h4v102h256v-1024h-256v102h-4q-61 -133 -211 -133q-56 0 -105.5 31t-91 93.5t-66 170.5t-24.5 248zM225 1188l144 287h204l144 -287h-185l-61 184l-61 -184h-185zM317 512q0 -307 123 -307 q113 0 113 307t-113 307q-123 0 -123 -307z" />
<glyph unicode="&#xe3;" horiz-adv-x="890" d="M51 512q0 140 24.5 248t66 170.5t91 93.5t105.5 31q150 0 211 -133h4v102h256v-1024h-256v102h-4q-61 -133 -211 -133q-56 0 -105.5 31t-91 93.5t-66 170.5t-24.5 248zM174 1188v61q0 43 5.5 76t19.5 64t44 48t74 17q35 0 88 -25.5t97.5 -51t60.5 -25.5q29 0 35 15.5 t6 66.5h144v-62q0 -43 -5.5 -76t-20 -64t-44.5 -48t-74 -17q-35 0 -88 25.5t-97.5 51.5t-60.5 26q-26 0 -33.5 -16.5t-7.5 -65.5h-143zM317 512q0 -307 123 -307q113 0 113 307t-113 307q-123 0 -123 -307z" />
<glyph unicode="&#xe4;" horiz-adv-x="890" d="M51 512q0 140 24.5 248t66 170.5t91 93.5t105.5 31q150 0 211 -133h4v102h256v-1024h-256v102h-4q-61 -133 -211 -133q-56 0 -105.5 31t-91 93.5t-66 170.5t-24.5 248zM205 1188v287h205v-287h-205zM317 512q0 -307 123 -307q113 0 113 307t-113 307q-123 0 -123 -307z M512 1188v287h205v-287h-205z" />
<glyph unicode="&#xe5;" horiz-adv-x="890" d="M51 512q0 140 24.5 248t66 170.5t91 93.5t105.5 31q150 0 211 -133h4v102h256v-1024h-256v102h-4q-61 -133 -211 -133q-56 0 -105.5 31t-91 93.5t-66 170.5t-24.5 248zM276 1321q0 72 51.5 123t123.5 51t123 -51t51 -123t-51 -123t-123 -51t-123.5 51t-51.5 123zM317 512 q0 -307 123 -307q113 0 113 307t-113 307q-123 0 -123 -307zM379 1321q0 -29 21.5 -50.5t50.5 -21.5t50 21.5t21 50.5t-21 50.5t-50 21.5t-50.5 -21.5t-21.5 -50.5z" />
<glyph unicode="&#xe6;" horiz-adv-x="1372" d="M51 512q0 140 24.5 248t66 170.5t91 93.5t105.5 31q150 0 211 -133h4v102h246q73 31 153 31q163 0 266 -126.5t103 -375.5v-123h-492q0 -104 37 -164.5t86 -60.5q48 0 78.5 20t48.5 70l221 -90q-34 -59 -63.5 -98t-70.5 -72.5t-93.5 -49.5t-120.5 -16q-79 0 -155 31h-244 v102h-4q-61 -133 -211 -133q-56 0 -105.5 31t-91 93.5t-66 170.5t-24.5 248zM317 512q0 -307 123 -307q113 0 113 307t-113 307q-123 0 -123 -307zM829 594h246q0 114 -36 169.5t-87 55.5t-87 -55.5t-36 -169.5z" />
<glyph unicode="&#xe7;" horiz-adv-x="778" d="M51 512q0 148 31.5 257t87 169.5t122.5 88.5t148 28q235 0 308 -256l-195 -82q-16 64 -41.5 93.5t-71.5 29.5q-34 0 -60 -28.5t-44.5 -104.5t-18.5 -195q0 -307 123 -307q46 0 67 20.5t36 81.5l205 -61q-34 -118 -113.5 -197.5t-194.5 -79.5q-81 0 -148 28t-122.5 88.5 t-87 169.5t-31.5 257zM276 -420q35 35 51.5 131t-10.5 176h205q29 -102 -11.5 -201.5t-121.5 -156.5z" />
<glyph unicode="&#xe8;" horiz-adv-x="860" d="M51 512q0 148 31.5 257t87 169.5t122.5 88.5t148 28q163 0 266 -126.5t103 -375.5v-123h-492q0 -104 37 -164.5t86 -60.5q48 0 78.5 20t48.5 70l221 -90q-34 -59 -63.5 -98t-70.5 -72.5t-93.5 -49.5t-120.5 -16q-63 0 -118.5 16.5t-106 56.5t-86.5 101t-57 155.5 t-21 213.5zM205 1475h225l102 -287h-163zM317 594h246q0 114 -36 169.5t-87 55.5t-87 -55.5t-36 -169.5z" />
<glyph unicode="&#xe9;" horiz-adv-x="860" d="M51 512q0 148 31.5 257t87 169.5t122.5 88.5t148 28q163 0 266 -126.5t103 -375.5v-123h-492q0 -104 37 -164.5t86 -60.5q48 0 78.5 20t48.5 70l221 -90q-34 -59 -63.5 -98t-70.5 -72.5t-93.5 -49.5t-120.5 -16q-63 0 -118.5 16.5t-106 56.5t-86.5 101t-57 155.5 t-21 213.5zM317 594h246q0 114 -36 169.5t-87 55.5t-87 -55.5t-36 -169.5zM348 1188l103 287h225l-164 -287h-164z" />
<glyph unicode="&#xea;" horiz-adv-x="860" d="M51 512q0 148 31.5 257t87 169.5t122.5 88.5t148 28q163 0 266 -126.5t103 -375.5v-123h-492q0 -104 37 -164.5t86 -60.5q48 0 78.5 20t48.5 70l221 -90q-34 -59 -63.5 -98t-70.5 -72.5t-93.5 -49.5t-120.5 -16q-63 0 -118.5 16.5t-106 56.5t-86.5 101t-57 155.5 t-21 213.5zM195 1188l143 287h205l143 -287h-184l-62 184l-61 -184h-184zM317 594h246q0 114 -36 169.5t-87 55.5t-87 -55.5t-36 -169.5z" />
<glyph unicode="&#xeb;" horiz-adv-x="860" d="M51 512q0 148 31.5 257t87 169.5t122.5 88.5t148 28q163 0 266 -126.5t103 -375.5v-123h-492q0 -104 37 -164.5t86 -60.5q48 0 78.5 20t48.5 70l221 -90q-34 -59 -63.5 -98t-70.5 -72.5t-93.5 -49.5t-120.5 -16q-63 0 -118.5 16.5t-106 56.5t-86.5 101t-57 155.5 t-21 213.5zM184 1188v287h205v-287h-205zM317 594h246q0 114 -36 169.5t-87 55.5t-87 -55.5t-36 -169.5zM492 1188v287h204v-287h-204z" />
<glyph unicode="&#xec;" horiz-adv-x="419" d="M-31 1475h226l102 -287h-164zM82 0v1024h256v-1024h-256z" />
<glyph unicode="&#xed;" horiz-adv-x="419" d="M82 0v1024h256v-1024h-256zM123 1188l102 287h226l-164 -287h-164z" />
<glyph unicode="&#xee;" horiz-adv-x="419" d="M-35 1188l144 287h204l144 -287h-185l-61 184l-61 -184h-185zM82 0v1024h256v-1024h-256z" />
<glyph unicode="&#xef;" horiz-adv-x="419" d="M-47 1188v287h205v-287h-205zM82 0v1024h256v-1024h-256zM260 1188v287h205v-287h-205z" />
<glyph unicode="&#xf0;" horiz-adv-x="890" d="M51 512q0 140 24.5 248t66 170.5t91 93.5t105.5 31q148 0 215 -133v286h-195l21 185h174v102h256v-102h82v-185h-82v-1208h-256v102q-67 -133 -215 -133q-56 0 -105.5 31t-91 93.5t-66 170.5t-24.5 248zM317 512q0 -307 123 -307q113 0 113 307t-113 307 q-123 0 -123 -307z" />
<glyph unicode="&#xf1;" horiz-adv-x="880" d="M82 0v1024h256v-102h4q51 76 105 104.5t147 28.5q41 0 75.5 -13t65 -42.5t47.5 -86t17 -135.5v-778h-256v664q0 79 -17.5 117t-74.5 38q-113 0 -113 -153v-666h-256zM141 1188v61q0 43 5.5 76t20 64t44.5 48t74 17q35 0 87.5 -25.5t97 -51t60.5 -25.5q29 0 35 15.5 t6 66.5h144v-62q0 -43 -5.5 -76t-20 -64t-44.5 -48t-74 -17q-35 0 -87.5 25.5t-97 51.5t-60.5 26q-26 0 -33.5 -16.5t-7.5 -65.5h-144z" />
<glyph unicode="&#xf2;" horiz-adv-x="880" d="M51 512q0 118 21 212t57 155t86.5 101.5t106 57.5t118.5 17t118.5 -17t106 -57.5t86.5 -101.5t57 -155t21 -212t-21 -212t-57 -155t-86.5 -101.5t-106 -57.5t-118.5 -17t-118.5 17t-106 57.5t-86.5 101.5t-57 155t-21 212zM205 1475h225l102 -287h-163zM317 512 q0 -307 123 -307t123 307t-123 307t-123 -307z" />
<glyph unicode="&#xf3;" horiz-adv-x="880" d="M51 512q0 118 21 212t57 155t86.5 101.5t106 57.5t118.5 17t118.5 -17t106 -57.5t86.5 -101.5t57 -155t21 -212t-21 -212t-57 -155t-86.5 -101.5t-106 -57.5t-118.5 -17t-118.5 17t-106 57.5t-86.5 101.5t-57 155t-21 212zM317 512q0 -307 123 -307t123 307t-123 307 t-123 -307zM348 1188l103 287h225l-164 -287h-164z" />
<glyph unicode="&#xf4;" horiz-adv-x="880" d="M51 512q0 118 21 212t57 155t86.5 101.5t106 57.5t118.5 17t118.5 -17t106 -57.5t86.5 -101.5t57 -155t21 -212t-21 -212t-57 -155t-86.5 -101.5t-106 -57.5t-118.5 -17t-118.5 17t-106 57.5t-86.5 101.5t-57 155t-21 212zM195 1188l143 287h205l143 -287h-184l-62 184 l-61 -184h-184zM317 512q0 -307 123 -307t123 307t-123 307t-123 -307z" />
<glyph unicode="&#xf5;" horiz-adv-x="880" d="M51 512q0 118 21 212t57 155t86.5 101.5t106 57.5t118.5 17t118.5 -17t106 -57.5t86.5 -101.5t57 -155t21 -212t-21 -212t-57 -155t-86.5 -101.5t-106 -57.5t-118.5 -17t-118.5 17t-106 57.5t-86.5 101.5t-57 155t-21 212zM154 1188v61q0 43 5.5 76t19.5 64t44 48t74 17 q35 0 88 -25.5t97.5 -51t60.5 -25.5q29 0 35 15.5t6 66.5h143v-62q0 -43 -5.5 -76t-19.5 -64t-44 -48t-74 -17q-35 0 -88 25.5t-97.5 51.5t-60.5 26q-26 0 -33.5 -16.5t-7.5 -65.5h-143zM317 512q0 -307 123 -307t123 307t-123 307t-123 -307z" />
<glyph unicode="&#xf6;" horiz-adv-x="880" d="M51 512q0 118 21 212t57 155t86.5 101.5t106 57.5t118.5 17t118.5 -17t106 -57.5t86.5 -101.5t57 -155t21 -212t-21 -212t-57 -155t-86.5 -101.5t-106 -57.5t-118.5 -17t-118.5 17t-106 57.5t-86.5 101.5t-57 155t-21 212zM184 1188v287h205v-287h-205zM317 512 q0 -307 123 -307t123 307t-123 307t-123 -307zM492 1188v287h204v-287h-204z" />
<glyph unicode="&#xf7;" horiz-adv-x="1044" d="M123 512v225h799v-225h-799zM410 143v226h225v-226h-225zM410 881v225h225v-225h-225z" />
<glyph unicode="&#xf8;" horiz-adv-x="880" d="M51 31l78 114q-78 134 -78 367q0 118 21 212t57 155t86.5 101.5t106 57.5t118.5 17q148 0 246 -92l62 92l81 -62l-77 -114q77 -138 77 -367q0 -118 -21 -212t-57 -155t-86.5 -101.5t-106 -57.5t-118.5 -17q-147 0 -245 92l-62 -92zM317 512q0 -51 2 -88l213 315 q-31 80 -92 80q-123 0 -123 -307zM348 285q30 -80 92 -80q123 0 123 307q0 16 -1 45.5t-1 42.5z" />
<glyph unicode="&#xf9;" horiz-adv-x="880" d="M82 246v778h256v-664q0 -78 19.5 -116.5t76.5 -38.5q109 0 109 153v666h256v-1024h-256v102h-4q-51 -76 -105 -104.5t-147 -28.5q-41 0 -75.5 13t-65 42.5t-47.5 86t-17 135.5zM205 1475h225l102 -287h-163z" />
<glyph unicode="&#xfa;" horiz-adv-x="880" d="M82 246v778h256v-664q0 -78 19.5 -116.5t76.5 -38.5q109 0 109 153v666h256v-1024h-256v102h-4q-51 -76 -105 -104.5t-147 -28.5q-41 0 -75.5 13t-65 42.5t-47.5 86t-17 135.5zM348 1188l103 287h225l-164 -287h-164z" />
<glyph unicode="&#xfb;" horiz-adv-x="880" d="M82 246v778h256v-664q0 -78 19.5 -116.5t76.5 -38.5q109 0 109 153v666h256v-1024h-256v102h-4q-51 -76 -105 -104.5t-147 -28.5q-41 0 -75.5 13t-65 42.5t-47.5 86t-17 135.5zM195 1188l143 287h205l143 -287h-184l-62 184l-61 -184h-184z" />
<glyph unicode="&#xfc;" horiz-adv-x="880" d="M82 246v778h256v-664q0 -78 19.5 -116.5t76.5 -38.5q109 0 109 153v666h256v-1024h-256v102h-4q-51 -76 -105 -104.5t-147 -28.5q-41 0 -75.5 13t-65 42.5t-47.5 86t-17 135.5zM184 1188v287h205v-287h-205zM492 1188v287h204v-287h-204z" />
<glyph unicode="&#xfd;" horiz-adv-x="747" d="M10 1024h266l86 -348q16 -68 19 -103h4q6 62 16 103l80 348h267l-328 -1413h-266l116 491zM287 1188l102 287h225l-163 -287h-164z" />
<glyph unicode="&#xfe;" horiz-adv-x="890" d="M82 -389v1884h256v-573q66 133 215 133q56 0 105.5 -31t91 -93.5t66 -170.5t24.5 -248t-24.5 -248t-66 -170.5t-91 -93.5t-105.5 -31q-149 0 -215 133v-491h-256zM338 512q0 -307 113 -307q122 0 122 307t-122 307q-113 0 -113 -307z" />
<glyph unicode="&#xff;" horiz-adv-x="706" d="M10 1024h266l86 -348q16 -68 19 -103h4q6 62 16 103l80 348h267l-328 -1413h-266l116 491zM133 1188v287h205v-287h-205zM440 1188v287h205v-287h-205z" />
<glyph unicode="&#x152;" horiz-adv-x="1464" d="M51 737q0 366 130.5 572.5t361.5 206.5q93 0 180 -41h659l21 -267h-369v-327h328v-256h-328v-359h369l-21 -266h-659q-87 -41 -180 -41q-231 0 -361.5 205t-130.5 573zM338 737q0 -512 205 -512t205 512t-205 512t-205 -512z" />
<glyph unicode="&#x153;" horiz-adv-x="1372" d="M51 512q0 118 21 212t57 155t86.5 101.5t106 57.5t118.5 17q157 0 254 -103q97 103 258 103q163 0 266 -126.5t103 -375.5v-123h-492q0 -104 37 -164.5t86 -60.5q48 0 78.5 20t48.5 70l221 -90q-34 -59 -63.5 -98t-70.5 -72.5t-93.5 -49.5t-120.5 -16q-159 0 -256 105 q-99 -105 -256 -105q-63 0 -118.5 17t-106 57.5t-86.5 101.5t-57 155t-21 212zM317 512q0 -307 123 -307t123 307t-123 307t-123 -307zM829 594h246q0 114 -36 169.5t-87 55.5t-87 -55.5t-36 -169.5z" />
<glyph unicode="&#x178;" horiz-adv-x="901" d="M-20 1475h215v-215h143l113 -461l112 461h144v215h215l-328 -1045v-430h-287v430zM225 1290v266h205v-266h-205zM471 1290v266h205v-266h-205z" />
<glyph unicode="&#x2c6;" horiz-adv-x="655" d="M82 1188l143 287h205l143 -287h-184l-61 184l-62 -184h-184z" />
<glyph unicode="&#x2dc;" horiz-adv-x="737" d="M82 1188v61q0 43 5.5 76t19.5 64t44 48t74 17q35 0 88 -25.5t97.5 -51t60.5 -25.5q29 0 35 15.5t6 66.5h143v-62q0 -43 -5.5 -76t-19.5 -64t-44 -48t-74 -17q-35 0 -88 25.5t-97.5 51.5t-60.5 26q-26 0 -33.5 -16.5t-7.5 -65.5h-143z" />
<glyph unicode="&#x2000;" horiz-adv-x="819" />
<glyph unicode="&#x2001;" horiz-adv-x="1638" />
<glyph unicode="&#x2002;" horiz-adv-x="819" />
<glyph unicode="&#x2003;" horiz-adv-x="1638" />
<glyph unicode="&#x2004;" horiz-adv-x="546" />
<glyph unicode="&#x2005;" horiz-adv-x="409" />
<glyph unicode="&#x2006;" horiz-adv-x="273" />
<glyph unicode="&#x2007;" horiz-adv-x="273" />
<glyph unicode="&#x2008;" horiz-adv-x="204" />
<glyph unicode="&#x2009;" horiz-adv-x="327" />
<glyph unicode="&#x200a;" horiz-adv-x="91" />
<glyph unicode="&#x2010;" horiz-adv-x="573" d="M82 512v225h410v-225h-410z" />
<glyph unicode="&#x2011;" horiz-adv-x="573" d="M82 512v225h410v-225h-410z" />
<glyph unicode="&#x2012;" horiz-adv-x="573" d="M82 512v225h410v-225h-410z" />
<glyph unicode="&#x2013;" horiz-adv-x="1024" d="M102 512v225h820v-225h-820z" />
<glyph unicode="&#x2014;" horiz-adv-x="1802" d="M82 512v225h1638v-225h-1638z" />
<glyph unicode="&#x2018;" horiz-adv-x="471" d="M102 1024v287q0 114 50.5 186t154.5 141l123 -102q-82 -82 -82 -225v-287h-246z" />
<glyph unicode="&#x2019;" horiz-adv-x="471" d="M41 963q82 82 82 225v287h246v-287q0 -114 -50.5 -186.5t-154.5 -141.5z" />
<glyph unicode="&#x201a;" horiz-adv-x="471" d="M41 -225q82 82 82 225v287h246v-287q0 -114 -50.5 -186.5t-154.5 -141.5z" />
<glyph unicode="&#x201c;" horiz-adv-x="839" d="M102 1024v287q0 114 50.5 186t154.5 141l123 -102q-82 -82 -82 -225v-287h-246zM471 1024v287q0 114 50.5 186t154.5 141l123 -102q-82 -82 -82 -225v-287h-246z" />
<glyph unicode="&#x201d;" horiz-adv-x="839" d="M41 963q82 82 82 225v287h246v-287q0 -114 -50.5 -186.5t-154.5 -141.5zM410 963q82 82 82 225v287h245v-287q0 -114 -50.5 -186.5t-154.5 -141.5z" />
<glyph unicode="&#x201e;" horiz-adv-x="839" d="M41 -225q82 82 82 225v287h246v-287q0 -114 -50.5 -186.5t-154.5 -141.5zM410 -225q82 82 82 225v287h245v-287q0 -114 -50.5 -186.5t-154.5 -141.5z" />
<glyph unicode="&#x2022;" horiz-adv-x="819" d="M41 686q0 152 108.5 260.5t260.5 108.5t260 -108.5t108 -260.5t-108 -260.5t-260 -108.5t-260.5 108.5t-108.5 260.5z" />
<glyph unicode="&#x2026;" horiz-adv-x="1536" d="M102 0v287h267v-287h-267zM635 0v287h266v-287h-266zM1167 0v287h267v-287h-267z" />
<glyph unicode="&#x202f;" horiz-adv-x="327" />
<glyph unicode="&#x2039;" horiz-adv-x="450" d="M61 573l103 328h225l-102 -328l102 -327h-225z" />
<glyph unicode="&#x203a;" horiz-adv-x="450" d="M61 246l103 327l-103 328h226l102 -328l-102 -327h-226z" />
<glyph unicode="&#x205f;" horiz-adv-x="409" />
<glyph unicode="&#x2122;" horiz-adv-x="1208" d="M61 1311l11 164h389l10 -164h-123v-492h-164v492h-123zM553 819v656h164l123 -226l123 226h163v-656h-163v389l-123 -225l-123 225v-389h-164z" />
<glyph unicode="&#xe000;" horiz-adv-x="1024" d="M0 0v1024h1024v-1024h-1024z" />
<glyph unicode="&#xfb01;" horiz-adv-x="942" d="M31 799l30 225h62v184q0 161 75.5 224t231.5 63h72v-225q-82 0 -102.5 -19.5t-20.5 -83.5v-143h481v-1024h-256v799h-225v-799h-256v799h-92zM604 1188v287h256v-287h-256z" />
<glyph unicode="&#xfb02;" horiz-adv-x="942" d="M31 799l30 225h62v184q0 166 77.5 226.5t280.5 60.5h379v-1495h-256v1270h-123q-61 0 -81.5 -20.5t-20.5 -82.5v-143h102v-225h-102v-799h-256v799h-92z" />
</font>
</defs>
</svg>
